<svg width="512" height="209" xmlns="http://www.w3.org/2000/svg" xmlns:xlink="http://www.w3.org/1999/xlink" xml:space="preserve" overflow="hidden"><defs><clipPath id="clip0"><rect x="0" y="0" width="512" height="209"/></clipPath></defs><g clip-path="url(#clip0)"><path d="M137.215 235.471 96.5687 212.022C89.375 207.873 80.7878 207.875 73.6001 212.028 66.4143 216.178 62.1252 223.608 62.1252 231.903L62.1252 278.801C62.1252 287.096 66.4143 294.525 73.6001 298.675 77.1969 300.753 81.1429 301.791 85.0899 301.791 89.0319 301.791 92.9748 300.754 96.5697 298.681L137.216 275.232C144.407 271.083 148.701 263.651 148.701 255.351 148.699 247.052 144.406 239.619 137.215 235.471ZM127.227 257.918 86.5801 281.366C85.2814 282.114 84.1532 281.688 83.5967 281.366 83.0421 281.046 82.1134 280.287 82.1134 278.801L82.1134 231.903C82.1134 230.416 83.0431 229.658 83.5967 229.337 83.9258 229.148 84.4535 228.921 85.0978 228.921 85.5447 228.921 86.0484 229.03 86.5801 229.336L127.227 252.785C128.519 253.531 128.711 254.713 128.711 255.351 128.711 255.99 128.519 257.173 127.227 257.918ZM230.353 208.929C224.834 208.929 220.358 213.404 220.358 218.924L220.358 291.718C220.358 297.238 224.833 301.713 230.353 301.713L255.865 301.713C261.384 301.713 265.86 297.238 265.86 291.718 265.86 286.198 261.385 281.723 255.865 281.723L240.346 281.723 240.346 218.924C240.347 213.404 235.873 208.929 230.353 208.929ZM300.457 218.924C300.457 213.404 295.982 208.929 290.462 208.929 284.942 208.929 280.468 213.404 280.468 218.924L280.468 291.779C280.468 297.299 284.942 301.773 290.462 301.773 295.982 301.773 300.457 297.299 300.457 291.779ZM440.041 229.251C445.56 229.251 450.036 224.776 450.036 219.256 450.036 213.736 445.561 209.261 440.041 209.261L409.624 209.261C404.105 209.261 399.629 213.736 399.629 219.256L399.629 291.447C399.629 296.967 404.104 301.441 409.624 301.441L440.041 301.441C445.56 301.441 450.036 296.967 450.036 291.447 450.036 285.927 445.561 281.452 440.041 281.452L419.617 281.452 419.617 265.346 437.798 265.346C443.317 265.346 447.793 260.871 447.793 255.351 447.793 249.831 443.318 245.357 437.798 245.357L419.617 245.357 419.617 229.25 440.041 229.25ZM351.413 301.773 351.494 301.773C356.444 301.739 360.839 298.568 362.454 293.816L386.242 222.209C387.982 216.971 385.146 211.313 379.908 209.573 374.675 207.833 369.014 210.668 367.273 215.907L351.24 264.172 334.397 215.646C332.587 210.432 326.894 207.673 321.678 209.482 316.463 211.292 313.704 216.986 315.514 222.201L340.447 294.032C342.099 298.671 346.489 301.771 351.413 301.773Z" fill="#000000" fill-rule="nonzero" fill-opacity="1" transform="matrix(1.00254 0 0 1 0 -149.881)"/><path d="M427.92 172.569 152.548 172.569C136.554 162.124 117.86 156.572 98.7581 156.594 44.3025 156.594 0 200.897 0 255.351 0 309.806 44.3025 354.109 98.7581 354.109 118.584 354.109 137.061 348.231 152.548 338.134L263.574 338.134C269.093 338.134 273.569 333.659 273.569 328.139 273.569 322.62 269.094 318.145 263.574 318.145L174.926 318.145C189.031 301.065 197.515 279.18 197.515 255.35 197.515 231.521 189.032 209.635 174.926 192.556L427.92 192.556C462.545 192.556 490.715 220.725 490.715 255.35 490.715 272.127 484.184 287.898 472.325 299.757 460.467 311.614 444.696 318.145 427.92 318.145L353.183 318.145C347.664 318.145 343.188 322.62 343.188 328.139 343.188 333.659 347.663 338.134 353.183 338.134L427.92 338.134C450.036 338.134 470.826 329.524 486.459 313.891 502.093 298.257 510.703 277.467 510.703 255.351 510.703 209.704 473.566 172.569 427.92 172.569ZM98.7581 334.12C55.3245 334.12 19.9882 298.784 19.9882 255.351 19.9882 211.919 55.3245 176.582 98.7581 176.582 142.191 176.582 177.527 211.919 177.527 255.351 177.527 298.784 142.191 334.12 98.7581 334.12Z" fill="#000000" fill-rule="nonzero" fill-opacity="1" transform="matrix(1.00254 0 0 1 0 -149.881)"/><path d="M318.355 328.14C318.355 333.649 313.89 338.115 308.381 338.115 302.872 338.115 298.406 333.649 298.406 328.14 298.406 322.632 302.872 318.166 308.381 318.166 313.89 318.166 318.355 322.632 318.355 328.14Z" fill="#000000" fill-rule="nonzero" fill-opacity="1" transform="matrix(1.00254 0 0 1 0 -149.881)"/></g></svg>