<svg xmlns="http://www.w3.org/2000/svg" version="1.1" xmlnsXlink="http://www.w3.org/1999/xlink" xmlnsSvgjs="http://svgjs.com/svgjs" width="512" height="512" x="0" y="0" viewBox="0 0 512 512" style="enable-background:new 0 0 512 512" xmlSpace="preserve" class=""><g><path d="m137.564 236.069-40.75-23.508c-7.212-4.16-15.821-4.158-23.027.006-7.204 4.16-11.504 11.609-11.504 19.925v47.017c0 8.316 4.3 15.764 11.504 19.925 3.606 2.083 7.562 3.124 11.519 3.124 3.952 0 7.905-1.04 11.509-3.118l40.75-23.509c7.209-4.159 11.514-11.61 11.514-19.931-.002-8.32-4.306-15.772-11.515-19.931zm-10.014 22.504L86.8 282.081c-1.302.75-2.433.322-2.991 0-.556-.321-1.487-1.082-1.487-2.572v-47.017c0-1.491.932-2.251 1.487-2.572.33-.19.859-.418 1.505-.418.448 0 .953.11 1.486.417l40.75 23.508c1.295.748 1.488 1.933 1.488 2.573s-.193 1.826-1.488 2.573zM230.938 209.46c-5.533 0-10.02 4.486-10.02 10.02v72.979c0 5.534 4.486 10.02 10.02 10.02h25.577c5.533 0 10.02-4.486 10.02-10.02s-4.486-10.02-10.02-10.02h-15.558V219.48c.001-5.534-4.485-10.02-10.019-10.02zM301.22 219.48c0-5.534-4.486-10.02-10.02-10.02s-10.02 4.486-10.02 10.02v73.04c0 5.534 4.486 10.02 10.02 10.02s10.02-4.486 10.02-10.02zM441.159 229.833c5.533 0 10.02-4.486 10.02-10.02s-4.486-10.02-10.02-10.02h-30.495c-5.533 0-10.02 4.486-10.02 10.02v72.374c0 5.534 4.486 10.02 10.02 10.02h30.495c5.533 0 10.02-4.486 10.02-10.02s-4.486-10.02-10.02-10.02h-20.476V266.02h18.227c5.533 0 10.02-4.486 10.02-10.02s-4.486-10.02-10.02-10.02h-18.227v-16.148h20.476zM352.306 302.54h.081c4.962-.035 9.369-3.214 10.988-7.978l23.848-71.789c1.745-5.251-1.099-10.923-6.35-12.668-5.246-1.744-10.922 1.098-12.667 6.35l-16.074 48.388-16.886-48.649c-1.814-5.227-7.522-7.993-12.751-6.18-5.228 1.815-7.994 7.523-6.18 12.751l24.997 72.014a11.677 11.677 0 0 0 10.994 7.761z" fill="#000000" data-original="#000000" class=""></path><path d="M429.007 173.007H152.935a98.42 98.42 0 0 0-53.926-16.015C44.415 156.992 0 201.407 0 256s44.415 99.008 99.009 99.008c19.876 0 38.4-5.892 53.926-16.015h111.309c5.533 0 10.02-4.486 10.02-10.02s-4.486-10.02-10.02-10.02H175.37c14.141-17.123 22.647-39.064 22.647-62.954s-8.505-45.831-22.647-62.954h253.637c34.713 0 62.954 28.241 62.954 62.954 0 16.819-6.547 32.63-18.436 44.519-11.888 11.888-27.699 18.435-44.518 18.435H354.08c-5.533 0-10.02 4.486-10.02 10.02s4.486 10.02 10.02 10.02h74.927c22.172 0 43.015-8.632 58.688-24.305S512 278.172 512 256c0-45.763-37.231-82.993-82.993-82.993zM99.009 334.969c-43.544 0-78.97-35.426-78.97-78.969s35.426-78.969 78.97-78.969c43.543 0 78.969 35.426 78.969 78.969s-35.426 78.969-78.969 78.969z" fill="#000000" data-original="#000000" class=""></path><circle cx="309.164" cy="328.974" r="10" fill="#000000" data-original="#000000" class=""></circle></g></svg>